# xmcd CD database file
#
# Track frame offsets:
#	180
#	39092
#	73345
#	111988
#	143153
#	195698
#	230273
#	259972
#
# Disc length: 4082 seconds
#
# Revision: 0
# Processed by: cddbd v1.5.2PL0 Copyright (c) Steve Scherf et al.
# Submitted via: CDex 1.51
#
DISCID=720ff008
DTITLE=Mike Nock - Bigsmallband Live
DYEAR=2002
DGENRE=Jazz
TTITLE0=Current Reality
TTITLE1=Dance Of The Global Village
TTITLE2=Courting TThe Edge Of Angst And Extasy
TTITLE3=No Upline
TTITLE4=Three Portraits Of A Simpleton
TTITLE5=Slum Goddess
TTITLE6=Open The Window (And Let In The Moon)
TTITLE7=Zalkits
EXTD=YEAR: 2002
EXTT0=
EXTT1=
EXTT2=
EXTT3=
EXTT4=
EXTT5=
EXTT6=
EXTT7=
PLAYORDER=
